<svg xmlns="http://www.w3.org/2000/svg" width="2100" height="1500" viewBox="0 0 2100 1500">
  <path d="M1011,131c341.86,0,619,277.136,619,619s-277.14,619-619,619S392,1091.86,392,750,669.136,131,1011,131Zm321.7,365.583c-8.98,88.594-53.24,137.156-53.24,137.156-23.39,35.371-120.83,134.648-120.83,134.648-24.79,74.413-97.79,118.128-97.79,118.128V999.44h62.31c31.41,0,35.48,36.7,35.48,36.7v61.84h33.61c14.95,0,15.96,16.37,15.96,16.37l-0.1,34.01-198.23,2.27-198.223-2.27-0.094-34.01s1.008-16.37,15.952-16.37h33.619v-61.84s4.069-36.7,35.478-36.7h62.305V886.515s-73-43.715-97.783-118.128c0,0-97.442-99.277-120.839-134.648,0,0-44.254-48.562-53.238-137.156,0,0-7.656-40.4,28.318-77.079,0,0,17.772-12.566,33.982-15.87l62.206-.022V367.361s3.062-13.6,17.085-13.6,181.232-1.133,181.232-1.133,167.22,1.133,181.24,1.133,17.09,13.6,17.09,13.6v36.251l62.2,0.022c16.21,3.3,33.98,15.87,33.98,15.87C1340.36,456.183,1332.7,496.583,1332.7,496.583ZM811.553,452.376l-54.277-1.134c-15.238,6.059-20.389,21.537-20.389,21.537-7.412,41.256,16.991,86.148,16.991,86.148C768.007,603.912,830.9,663.211,830.9,663.211,805.557,567.956,811.553,452.376,811.553,452.376Zm471.307,20.4s-5.15-15.478-20.39-21.537l-54.27,1.134s5.99,115.58-19.35,210.835c0,0,62.89-59.3,77.02-104.284C1265.87,558.927,1290.27,514.035,1282.86,472.779Z"/>
</svg>
