<?xml version="1.0" encoding="utf-8"?>
<!-- Generator: Adobe Illustrator 22.0.1, SVG Export Plug-In . SVG Version: 6.00 Build 0)  -->
<svg version="1.1" id="Layer_1" xmlns="http://www.w3.org/2000/svg" xmlns:xlink="http://www.w3.org/1999/xlink" x="0px" y="0px"
	 viewBox="0 0 300 300" style="enable-background:new 0 0 300 300;" xml:space="preserve">
<style type="text/css">
	.st0{fill:#999999;}
</style>
<path class="st0" d="M150-0.1C67.1-0.1-0.1,67.1-0.1,149.9C-0.1,232.8,67.1,300,150,300c82.9,0,150.1-67.2,150.1-150.1
	C300.1,67.1,232.9-0.1,150-0.1z M80.5,177.1c-13.6,0-24.6-11-24.6-24.6c0-13.6,11-24.6,24.6-24.6s24.6,11,24.6,24.6
	C105.1,166.1,94.1,177.1,80.5,177.1z M150,177.1c-13.6,0-24.6-11-24.6-24.6c0-13.6,11-24.6,24.6-24.6c13.6,0,24.6,11,24.6,24.6
	C174.6,166.1,163.6,177.1,150,177.1z M219.5,177.1c-13.6,0-24.6-11-24.6-24.6c0-13.6,11-24.6,24.6-24.6c13.6,0,24.6,11,24.6,24.6
	C244.1,166.1,233.1,177.1,219.5,177.1z"/>
</svg>
