<svg xmlns="http://www.w3.org/2000/svg" xmlns:xlink="http://www.w3.org/1999/xlink" preserveAspectRatio="xMidYMid" width="416.665" height="349.999" viewBox="0 0 25 21">
  <path d="M12.655,0.002 C5.837,0.002 0.310,4.702 0.310,10.499 C0.310,12.310 0.849,14.014 1.799,15.501 C1.382,16.425 0.644,18.057 0.226,18.974 C-0.271,20.064 0.030,20.521 1.168,20.191 C1.728,20.029 3.763,19.392 5.278,18.916 C7.336,20.222 9.889,20.995 12.655,20.995 C19.473,20.995 25.000,16.296 25.000,10.499 C25.000,4.702 19.473,0.002 12.655,0.002 ZM16.880,13.013 C16.880,13.473 16.492,13.849 16.018,13.849 L7.179,13.849 C6.705,13.849 6.317,13.473 6.317,13.013 L6.317,12.551 C6.317,12.091 6.705,11.715 7.179,11.715 L16.018,11.715 C16.492,11.715 16.880,12.091 16.880,12.551 L16.880,13.013 ZM18.993,8.447 C18.993,8.906 18.605,9.282 18.131,9.282 L7.179,9.282 C6.705,9.282 6.317,8.906 6.317,8.447 L6.317,7.984 C6.317,7.525 6.705,7.149 7.179,7.149 L18.131,7.149 C18.605,7.149 18.993,7.525 18.993,7.984 L18.993,8.447 Z" fill="#000"/>
</svg>
