<svg xmlns="http://www.w3.org/2000/svg" width="300" height="300" viewBox="0 0 300 300">
  <metadata><?xpacket begin="﻿" id="W5M0MpCehiHzreSzNTczkc9d"?>
<x:xmpmeta xmlns:x="adobe:ns:meta/" x:xmptk="Adobe XMP Core 5.6-c142 79.160924, 2017/07/13-01:06:39        ">
   <rdf:RDF xmlns:rdf="http://www.w3.org/1999/02/22-rdf-syntax-ns#">
      <rdf:Description rdf:about=""/>
   </rdf:RDF>
</x:xmpmeta>
                                                                                                    
                                                                                                    
                                                                                                    
                                                                                                    
                                                                                                    
                                                                                                    
                                                                                                    
                                                                                                    
                                                                                                    
                                                                                                    
                                                                                                    
                                                                                                    
                                                                                                    
                                                                                                    
                                                                                                    
                                                                                                    
                                                                                                    
                                                                                                    
                                                                                                    
                                                                                                    
                           
<?xpacket end="w"?></metadata>
<defs>
    <style>
      .cls-1 {
        fill-rule: evenodd;
      }
    </style>
  </defs>
  <path id="Forma_1" data-name="Forma 1" class="cls-1" d="M251.312,32.493h-9.221V22.63a22.43,22.43,0,1,0-44.858,0v9.855H174.214V22.63a22.432,22.432,0,1,0-44.862,0v9.855H106.337V22.63a22.432,22.432,0,1,0-44.862,0v9.855H49.7c-19.681,0-35.7,15.7-35.7,34.983V265.014C14,284.306,30.017,300,49.7,300H251.312c19.689,0,35.7-15.691,35.7-34.983V67.468C287.015,48.189,271,32.493,251.312,32.493ZM209.834,22.63a9.838,9.838,0,1,1,19.656,0v40.3a9.838,9.838,0,1,1-19.656,0V22.63Zm-67.881,0a9.84,9.84,0,1,1,19.66,0v40.3a9.84,9.84,0,1,1-19.66,0V22.63Zm-67.877,0a9.84,9.84,0,1,1,19.66,0v40.3a9.84,9.84,0,1,1-19.66,0V22.63Zm191.937,242.4a14.572,14.572,0,0,1-14.7,14.4H49.7A14.572,14.572,0,0,1,35,265.03V83.938H266.013V265.03ZM53.9,120.385H92.5v33.651H53.9V120.385Zm51.527,0h38.611v33.651H105.426V120.385Zm51.56,0h38.6v33.651h-38.6V120.385Zm51.519,0h38.607v33.651H208.505V120.385ZM53.9,165.307H92.5v33.632H53.9V165.307Zm51.527,0h38.611v33.632H105.426V165.307Zm51.56,0h38.6v33.632h-38.6V165.307Zm51.519,0h38.607v33.632H208.505V165.307ZM53.9,210.225H92.5v33.632H53.9V210.225Zm51.527,0h38.611v33.632H105.426V210.225Zm51.56,0h38.6v33.632h-38.6V210.225Zm51.519,0h38.607v33.632H208.505V210.225Z"/>
</svg>
