<svg xmlns="http://www.w3.org/2000/svg" xmlns:xlink="http://www.w3.org/1999/xlink" preserveAspectRatio="xMidYMid" width="290.313" height="300" viewBox="0 0 29.031 30">  
  <path d="M28.647,3.059 L13.387,18.229 C12.905,18.708 8.822,20.068 8.822,20.068 C8.822,20.068 10.209,15.990 10.690,15.511 L25.931,0.360 C26.413,-0.119 27.201,-0.119 27.683,0.360 L28.647,1.318 C29.128,1.797 29.128,2.580 28.647,3.059 ZM27.114,1.884 C26.817,1.588 26.331,1.588 26.034,1.884 C25.736,2.179 25.736,2.662 26.034,2.958 C26.331,3.253 26.817,3.253 27.114,2.958 C27.411,2.662 27.411,2.179 27.114,1.884 ZM3.869,5.650 C2.954,5.650 2.210,6.390 2.210,7.300 L2.210,26.147 C2.210,27.057 2.954,27.797 3.869,27.797 L21.100,27.797 C22.015,27.797 22.759,27.057 22.759,26.147 L22.759,10.993 L24.971,8.794 L24.971,26.147 C24.971,28.270 23.234,29.996 21.100,29.996 L3.869,29.996 C1.735,29.996 -0.002,28.270 -0.002,26.147 L-0.002,7.300 C-0.002,5.177 1.735,3.451 3.869,3.451 L20.729,3.451 L18.516,5.650 L3.869,5.650 Z" fill="#000"/>
</svg>
