<?xml version="1.0" encoding="utf-8"?>
<!-- Generator: Adobe Illustrator 22.0.1, SVG Export Plug-In . SVG Version: 6.00 Build 0)  -->
<svg version="1.1" id="Layer_1" xmlns="http://www.w3.org/2000/svg" xmlns:xlink="http://www.w3.org/1999/xlink" x="0px" y="0px"
	 viewBox="0 0 300 300" style="enable-background:new 0 0 300 300;" xml:space="preserve">
<path d="M217.2,0H82.8C37.1,0,0,37.1,0,82.8v134.4C0,262.9,37.1,300,82.8,300h134.4c45.7,0,82.8-37.1,82.8-82.8V82.8
	C300,37.1,262.9,0,217.2,0z M217.2,273.4H82.8c-31,0-56.2-25.2-56.2-56.2V82.8c0-31,25.2-56.2,56.2-56.2h134.4
	c31,0,56.2,25.2,56.2,56.2v134.4h0C273.4,248.2,248.2,273.4,217.2,273.4z M150,72.7c-42.6,0-77.3,34.7-77.3,77.3
	c0,42.6,34.7,77.3,77.3,77.3s77.3-34.7,77.3-77.3C227.3,107.4,192.6,72.7,150,72.7z M150,200.7c-27.9,0-50.7-22.7-50.7-50.7
	c0-27.9,22.7-50.7,50.7-50.7c27.9,0,50.7,22.7,50.7,50.7C200.7,177.9,177.9,200.7,150,200.7z M244.3,55.8c3.6,3.6,5.7,8.7,5.7,13.8
	c0,5.1-2.1,10.2-5.7,13.8c-3.6,3.6-8.7,5.7-13.8,5.7c-5.1,0-10.2-2.1-13.8-5.7c-3.6-3.6-5.7-8.7-5.7-13.8c0-5.1,2.1-10.2,5.7-13.8
	c3.6-3.6,8.7-5.7,13.8-5.7C235.7,50.1,240.7,52.2,244.3,55.8z"/>
</svg>
