<svg xmlns="http://www.w3.org/2000/svg" xmlns:xlink="http://www.w3.org/1999/xlink" preserveAspectRatio="xMidYMid" width="366.665" height="366.665" viewBox="0 0 22 22">  
  <path d="M20.130,0.000 L1.869,0.000 C0.841,0.000 0.000,0.841 0.000,1.869 L0.000,20.130 C0.000,21.158 0.841,21.999 1.869,21.999 L20.130,21.999 C21.158,21.999 21.999,21.158 21.999,20.130 L21.999,1.869 C21.999,0.841 21.158,0.000 20.130,0.000 ZM10.231,4.196 C10.231,3.773 10.578,3.426 11.001,3.426 L18.384,3.426 C18.807,3.426 19.154,3.773 19.154,4.196 L19.154,4.206 C19.154,4.629 18.807,4.975 18.384,4.975 L11.001,4.975 C10.578,4.975 10.231,4.629 10.231,4.206 L10.231,4.196 ZM10.231,7.511 C10.231,7.088 10.578,6.741 11.001,6.741 L16.897,6.741 C17.320,6.741 17.667,7.088 17.667,7.511 L17.667,7.521 C17.667,7.944 17.320,8.290 16.897,8.290 L11.001,8.290 C10.578,8.290 10.231,7.944 10.231,7.521 L10.231,7.511 ZM2.803,3.800 C2.803,3.389 3.139,3.053 3.550,3.053 L7.501,3.053 C7.912,3.053 8.249,3.389 8.249,3.800 L8.249,7.751 C8.249,8.162 7.912,8.498 7.501,8.498 L3.550,8.498 C3.139,8.498 2.803,8.162 2.803,7.751 L2.803,3.800 ZM19.196,18.199 C19.196,18.610 18.860,18.946 18.449,18.946 L3.550,18.946 C3.139,18.946 2.803,18.610 2.803,18.199 L2.803,11.212 C2.803,10.801 3.139,10.465 3.550,10.465 L18.449,10.465 C18.860,10.465 19.196,10.801 19.196,11.212 L19.196,18.199 Z" fill="#000"/>
</svg>
