<?xml version="1.0" encoding="utf-8"?>
<!-- Generator: Adobe Illustrator 22.0.1, SVG Export Plug-In . SVG Version: 6.00 Build 0)  -->
<svg version="1.1" id="Layer_1" xmlns="http://www.w3.org/2000/svg" xmlns:xlink="http://www.w3.org/1999/xlink" x="0px" y="0px"
	 viewBox="0 0 300 300" style="enable-background:new 0 0 300 300;" xml:space="preserve">
<style type="text/css">
	.st0{fill:#999999;}
</style>
<path class="st0" d="M274.2-0.1H25C11-0.1-0.4,11.4-0.4,25.4v249.1c0,14,11.5,25.5,25.5,25.5h249.1c14,0,25.5-11.5,25.5-25.5V25.4
	C299.7,11.4,288.2-0.1,274.2-0.1z M142.4,106.8c0-5.8,4.7-10.5,10.5-10.5h80.4c5.8,0,10.5,4.7,10.5,10.5v0.1
	c0,5.8-4.7,10.5-10.5,10.5h-80.4c-5.8,0-10.5-4.7-10.5-10.5V106.8z M115.4,238.7c0,5.6-4.6,10.2-10.2,10.2H45.3
	c-5.6,0-10.2-4.6-10.2-10.2v-59.9c0-5.6,4.6-10.2,10.2-10.2h59.9c5.6,0,10.2,4.6,10.2,10.2V238.7z M115.4,121.2
	c0,5.6-4.6,10.2-10.2,10.2H45.3c-5.6,0-10.2-4.6-10.2-10.2V61.2c0-5.6,4.6-10.2,10.2-10.2h59.9c5.6,0,10.2,4.6,10.2,10.2V121.2z
	 M243.9,224.4c0,5.8-4.7,10.5-10.5,10.5h-80.4c-5.8,0-10.5-4.7-10.5-10.5v-0.1c0-5.8,4.7-10.5,10.5-10.5h80.4
	c5.8,0,10.5,4.7,10.5,10.5V224.4z M264.1,179.2c0,5.8-4.7,10.5-10.5,10.5H152.9c-5.8,0-10.5-4.7-10.5-10.5V179
	c0-5.8,4.7-10.5,10.5-10.5h100.7c5.8,0,10.5,4.7,10.5,10.5V179.2z M264.1,61.7c0,5.8-4.7,10.5-10.5,10.5H152.9
	c-5.8,0-10.5-4.7-10.5-10.5v-0.1c0-5.8,4.7-10.5,10.5-10.5h100.7c5.8,0,10.5,4.7,10.5,10.5V61.7z"/>
</svg>
