<?xml version="1.0" encoding="utf-8"?>
<!-- Generator: Adobe Illustrator 22.0.1, SVG Export Plug-In . SVG Version: 6.00 Build 0)  -->
<svg version="1.1" id="Layer_1" xmlns="http://www.w3.org/2000/svg" xmlns:xlink="http://www.w3.org/1999/xlink" x="0px" y="0px"
	 viewBox="0 0 300 300" style="enable-background:new 0 0 300 300;" xml:space="preserve">
<style type="text/css">
	.st0{fill:#999999;}
</style>
<path class="st0" d="M282.1,117.1h-26.3c-2-6.3-4.5-12.3-7.6-18l18.6-18.5c7-6.9,7-18.3,0-25.2l-21.7-21.6c-7-6.9-18.3-6.9-25.3,0
	l-18.6,18.5c-5.8-3-11.8-5.6-18.1-7.5V18.7c0-9.8-8.1-17.8-17.9-17.8h-30.6c-9.8,0-17.9,8-17.9,17.8v26.1c-6.3,2-12.3,4.5-18.1,7.5
	L80.1,33.9c-7-6.9-18.3-6.9-25.3,0L33.1,55.4c-7,6.9-7,18.3,0,25.2l18.6,18.5c-3,5.7-5.6,11.7-7.6,18H17.9c-9.8,0-17.9,8-17.9,17.8
	v30.5c0,9.8,8.1,17.8,17.9,17.8h26.3c2,6.3,4.6,12.3,7.6,18l-18.6,18.5c-7,6.9-7,18.2,0,25.2l21.7,21.6c7,6.9,18.3,6.9,25.3,0
	l18.6-18.5c5.8,3,11.8,5.6,18.1,7.5v26.1c0,9.8,8.1,17.8,17.9,17.8h30.6c9.8,0,17.9-8,17.9-17.8v-26.1c6.3-2,12.3-4.5,18.1-7.5
	l18.6,18.5c7,6.9,18.3,6.9,25.3,0l21.7-21.6c7-6.9,7-18.2,0-25.2l-18.6-18.5c3-5.7,5.6-11.7,7.6-18h26.3c9.8,0,17.9-8,17.9-17.8
	v-30.5C300,125.1,291.9,117.1,282.1,117.1z M150,209.6c-33,0-59.8-26.6-59.8-59.5c0-32.8,26.8-59.5,59.8-59.5
	c33,0,59.8,26.6,59.8,59.5C209.8,183,183,209.6,150,209.6z"/>
</svg>
