<svg version="1.1" id="Layer_1" xmlns="http://www.w3.org/2000/svg" xmlns:xlink="http://www.w3.org/1999/xlink" x="0px" y="0px"
	 width="512px" height="512px" viewBox="0 0 512 512" enable-background="new 0 0 512 512" xml:space="preserve">
	<path d="M107.479,263.854l-9.718,54.24c-0.525,2.99,0.433,6.049,2.612,8.178c2.175,2.131,5.25,3.041,8.242,2.453l54.034-10.842
		c1.823-0.365,3.472-1.266,4.77-2.576l21.869-22.318l18.44-133.738l-97.748,99.803C108.665,260.363,107.8,262.045,107.479,263.854z"
		/>
	<path d="M374.96,102.291H248.679l-39.284,284.898c-0.579,4.176,0.718,8.402,3.553,11.539l88.209,98.15
		c2.724,3.01,6.597,4.738,10.663,4.738s7.939-1.729,10.663-4.738l88.223-98.15c2.834-3.137,4.114-7.363,3.539-11.539L374.96,102.291
		z"/>
	<path d="M246.437,69.506l1.605,6.643h127.556l1.601-6.643l5.412-22.238c2.148-8.9,0.098-18.297-5.554-25.488
		c-5.652-7.203-14.313-11.396-23.469-11.396h-83.534c-9.16,0-17.821,4.193-23.469,11.396c-5.652,7.191-7.702,16.588-5.558,25.488
		L246.437,69.506z"/>
</svg>
