<?xml version="1.0" encoding="utf-8"?>
<!-- Generator: Adobe Illustrator 22.0.1, SVG Export Plug-In . SVG Version: 6.00 Build 0)  -->
<svg version="1.1" id="Layer_1" xmlns="http://www.w3.org/2000/svg" xmlns:xlink="http://www.w3.org/1999/xlink" x="0px" y="0px"
	 viewBox="0 0 2100 1500" style="enable-background:new 0 0 2100 1500;" xml:space="preserve">
<path d="M1548.1,144.6c0,0-32.5-23-62.1-29h-113.7V49.3c0,0-5.6-24.9-31.2-24.9s-331.3-2.1-331.3-2.1s-305.6,2.1-331.2,2.1
	s-31.2,24.9-31.2,24.9v66.3H533.7c-29.6,6-62.1,29-62.1,29c-65.8,67-51.8,140.9-51.8,140.9c16.4,161.9,97.3,250.7,97.3,250.7
	C559.9,600.8,738,782.3,738,782.3c45.3,136,178.7,215.9,178.7,215.9v206.4H802.8c-57.4,0-64.8,67.1-64.8,67.1v113h-61.4
	c-27.3,0-29.2,29.9-29.2,29.9l0.2,62.2l362.3,4.1l362.3-4.1l0.2-62.2c0,0-1.8-29.9-29.2-29.9h-61.4v-113c0,0-7.4-67.1-64.8-67.1
	h-114V998.2c0,0,133.4-79.9,178.7-215.9c0,0,178.1-181.5,220.8-246.1c0,0,80.9-88.8,97.3-250.7
	C1599.9,285.5,1613.9,211.6,1548.1,144.6z M542,399.4c0,0-44.6-82.1-31.1-157.5c0,0,9.4-28.3,37.3-39.4l99.2,2.1
	c0,0-11,211.2,35.4,385.3C682.8,590,567.8,481.6,542,399.4z M1477.8,399.4C1451.9,481.6,1337,590,1337,590
	c46.3-174.1,35.4-385.3,35.4-385.3l99.2-2.1c27.9,11.1,37.3,39.4,37.3,39.4l0,0C1522.4,317.4,1477.8,399.4,1477.8,399.4z"/>
</svg>
