<svg xmlns="http://www.w3.org/2000/svg" xmlns:xlink="http://www.w3.org/1999/xlink" preserveAspectRatio="xMidYMid" width="299.999" height="299.999" viewBox="0 0 35 35">  
  <path d="M32.168,20.326 C30.606,20.326 29.340,19.059 29.340,17.497 C29.340,15.935 30.606,14.669 32.168,14.669 C33.730,14.669 34.997,15.935 34.997,17.497 C34.997,19.059 33.730,20.326 32.168,20.326 ZM31.650,12.708 C30.292,13.480 28.565,13.005 27.793,11.647 C27.021,10.289 27.497,8.562 28.855,7.790 C30.213,7.018 31.940,7.493 32.712,8.851 C33.483,10.210 33.008,11.936 31.650,12.708 ZM23.464,7.269 C22.114,6.482 21.658,4.750 22.445,3.400 C23.232,2.051 24.964,1.595 26.313,2.382 C27.663,3.169 28.119,4.901 27.332,6.250 C26.545,7.600 24.813,8.056 23.464,7.269 ZM17.499,5.657 C15.937,5.657 14.670,4.390 14.670,2.828 C14.670,1.266 15.937,-0.000 17.499,-0.000 C19.061,-0.000 20.328,1.266 20.328,2.828 C20.328,4.390 19.061,5.657 17.499,5.657 ZM11.648,7.203 C10.290,7.975 8.563,7.500 7.792,6.142 C7.020,4.784 7.495,3.057 8.853,2.285 C10.211,1.513 11.938,1.988 12.710,3.346 C13.482,4.705 13.007,6.431 11.648,7.203 ZM7.270,11.533 C6.484,12.882 4.752,13.339 3.402,12.551 C2.053,11.765 1.597,10.033 2.383,8.683 C3.170,7.334 4.902,6.878 6.252,7.665 C7.601,8.451 8.057,10.183 7.270,11.533 ZM5.659,17.497 C5.659,19.059 4.392,20.326 2.830,20.326 C1.268,20.326 0.001,19.059 0.001,17.497 C0.001,15.935 1.268,14.669 2.830,14.669 C4.392,14.669 5.659,15.935 5.659,17.497 ZM3.348,22.286 C4.706,21.515 6.433,21.990 7.205,23.348 C7.977,24.706 7.502,26.433 6.143,27.205 C4.785,27.977 3.058,27.501 2.287,26.143 C1.515,24.785 1.990,23.058 3.348,22.286 ZM11.534,27.726 C12.884,28.513 13.340,30.245 12.553,31.594 C11.766,32.944 10.034,33.400 8.685,32.613 C7.335,31.826 6.879,30.094 7.666,28.744 C8.453,27.395 10.185,26.939 11.534,27.726 ZM17.499,29.338 C19.061,29.338 20.328,30.604 20.328,32.166 C20.328,33.729 19.061,34.995 17.499,34.995 C15.937,34.995 14.670,33.729 14.670,32.166 C14.670,30.604 15.937,29.338 17.499,29.338 ZM17.499,25.517 C13.070,25.517 9.479,21.926 9.479,17.497 C9.479,13.068 13.070,9.478 17.499,9.478 C21.928,9.478 25.519,13.068 25.519,17.497 C25.519,21.926 21.928,25.517 17.499,25.517 ZM23.350,27.791 C24.708,27.019 26.434,27.495 27.206,28.853 C27.978,30.211 27.503,31.938 26.145,32.710 C24.787,33.482 23.060,33.006 22.288,31.648 C21.516,30.290 21.991,28.563 23.350,27.791 ZM27.728,23.462 C28.514,22.112 30.246,21.656 31.596,22.443 C32.945,23.230 33.402,24.962 32.615,26.312 C31.828,27.661 30.096,28.117 28.746,27.330 C27.397,26.543 26.941,24.811 27.728,23.462 Z" fill="#000"/>
</svg>
