<svg xmlns="http://www.w3.org/2000/svg" xmlns:xlink="http://www.w3.org/1999/xlink" preserveAspectRatio="xMidYMid" width="298.077" height="298.077" viewBox="0 0 38.75 38.75">
   <path d="M19.371,0.008 C22.861,0.008 26.090,0.880 29.059,2.625 C32.027,4.370 34.384,6.727 36.129,9.695 C37.874,12.664 38.746,15.893 38.746,19.383 C38.746,22.872 37.874,26.102 36.129,29.070 C34.384,32.039 32.027,34.396 29.059,36.141 C26.090,37.885 22.861,38.758 19.371,38.758 C15.882,38.758 12.652,37.885 9.684,36.141 C6.715,34.396 4.358,32.039 2.613,29.070 C0.868,26.102 -0.004,22.872 -0.004,19.383 C-0.004,15.893 0.868,12.664 2.613,9.695 C4.358,6.727 6.715,4.370 9.684,2.625 C12.652,0.880 15.882,0.008 19.371,0.008 ZM28.434,21.258 C29.059,20.893 29.371,20.346 29.371,19.617 C29.371,18.888 29.059,18.341 28.434,17.977 L14.684,9.617 C14.059,9.253 13.434,9.253 12.809,9.617 C12.184,9.982 11.871,10.529 11.871,11.258 L11.871,27.508 C11.871,28.237 12.184,28.784 12.809,29.148 C13.434,29.513 14.059,29.513 14.684,29.148 L28.434,21.258 Z" fill="#000"/>
</svg>
