<?xml version="1.0" encoding="utf-8"?>
<!-- Generator: Adobe Illustrator 22.0.1, SVG Export Plug-In . SVG Version: 6.00 Build 0)  -->
<svg version="1.1" id="Layer_1" xmlns="http://www.w3.org/2000/svg" xmlns:xlink="http://www.w3.org/1999/xlink" x="0px" y="0px"
	 viewBox="0 0 2100 1500" style="enable-background:new 0 0 2100 1500;" xml:space="preserve">
<style type="text/css">
	.st0{stroke:#FFFFFF;stroke-miterlimit:10;}
</style>
<path class="st0" d="M1065.4,7.7C655,7.7,322.3,340.4,322.3,750.8s332.7,743.1,743.1,743.1s743.1-332.7,743.1-743.1
	S1475.8,7.7,1065.4,7.7z M1478.8,424.1c-11.5,113.5-68.2,175.7-68.2,175.7c-29.9,45.3-154.7,172.5-154.7,172.5
	c-31.7,95.3-125.2,151.3-125.2,151.3v144.7h79.9c40.2,0,45.4,47,45.4,47v79.2h43c19.2,0,20.5,21,20.5,21l-0.1,43.6l-253.9,2.9
	l-253.9-2.9l-0.1-43.6c0,0,1.3-21,20.5-21h43v-79.2c0,0,5.2-47,45.4-47h79.8V923.6c0,0-93.5-56-125.2-151.3
	c0,0-124.8-127.2-154.8-172.5c0,0-56.7-62.2-68.2-175.7c0,0-9.8-51.8,36.3-98.7c0,0,22.8-16.1,43.5-20.3h79.7v-46.5
	c0,0,3.9-17.5,21.9-17.5c17.9,0,232.1-1.5,232.1-1.5s214.2,1.5,232.2,1.5c17.9,0,21.9,17.5,21.9,17.5v46.5h79.7
	c20.7,4.2,43.5,20.3,43.5,20.3C1488.7,372.3,1478.9,424.1,1478.8,424.1z M836.2,637.5c0,0.1-80.6-75.9-98.7-133.5
	c0,0-31.3-57.5-21.8-110.4c0,0,6.6-19.8,26.1-27.6l69.5,1.5C811.4,367.4,803.6,515.5,836.2,637.5z M1415.1,393.7
	c9.5,52.8-21.8,110.3-21.8,110.3c-18.2,57.6-98.7,133.6-98.7,133.6c32.4-122,24.8-270,24.8-270l69.5-1.5
	C1408.5,373.8,1415.1,393.7,1415.1,393.7z"/>
</svg>
