<?xml version="1.0" encoding="utf-8"?>
<!-- Generator: Adobe Illustrator 22.0.1, SVG Export Plug-In . SVG Version: 6.00 Build 0)  -->
<svg version="1.1" id="Layer_1" xmlns="http://www.w3.org/2000/svg" xmlns:xlink="http://www.w3.org/1999/xlink" x="0px" y="0px"
	 viewBox="0 0 30 30" style="enable-background:new 0 0 30 30;" xml:space="preserve">
<path d="M20.1,20.4h6.2c-2.2,4.8-7,8.1-12.5,8.1C6.2,28.5,0,22.3,0,14.8S6.2,1,13.8,1c5.3,0,9.9,3,12.2,7.5h-6.5
	C18,7.1,16,6.2,13.8,6.2C9,6.2,5.2,10,5.2,14.8c0,4.7,3.8,8.5,8.5,8.5C16.3,23.3,18.6,22.2,20.1,20.4z M30,14.6l-7.8-3.4v1.5H11.1
	v3.8h11.1v1.5L30,14.6z"/>
</svg>
