<svg xmlns="http://www.w3.org/2000/svg" xmlns:xlink="http://www.w3.org/1999/xlink" preserveAspectRatio="xMidYMid" width="299.999" height="315.788" viewBox="0 0 19 20">  
  <path d="M18.206,17.362 C17.562,17.362 12.844,17.362 10.306,17.362 C10.306,17.362 9.658,17.362 8.700,17.362 C6.162,17.362 1.444,17.362 0.800,17.362 C-0.088,17.362 -0.426,16.786 0.800,15.840 C2.025,14.894 2.785,12.960 2.785,9.710 C2.785,6.460 3.081,4.526 4.771,2.839 C6.004,1.609 7.440,1.232 8.700,1.119 L8.700,0.782 C8.700,0.352 9.062,0.001 9.503,0.001 C9.945,0.001 10.306,0.352 10.306,0.782 L10.306,1.119 C11.566,1.232 13.002,1.609 14.235,2.839 C15.925,4.526 16.221,6.460 16.221,9.710 C16.221,12.960 16.981,14.894 18.206,15.840 C19.432,16.786 19.094,17.362 18.206,17.362 ZM9.503,19.995 C8.406,19.995 7.517,19.130 7.517,18.062 L11.489,18.062 C11.489,19.130 10.600,19.995 9.503,19.995 Z" fill="#000" />
</svg>
