<?xml version="1.0" encoding="utf-8"?>
<!-- Generator: Adobe Illustrator 22.0.1, SVG Export Plug-In . SVG Version: 6.00 Build 0)  -->
<svg version="1.1" id="Capa_1" xmlns="http://www.w3.org/2000/svg" xmlns:xlink="http://www.w3.org/1999/xlink" x="0px" y="0px"
	 viewBox="0 0 456.8 456.8" style="enable-background:new 0 0 456.8 456.8;" xml:space="preserve">
<path d="M433.1,313.5c3.2,10.7,3.2,21.8,0,33.4c-2.9,10.9-8,19.8-15.4,26.8c1.7,21.3-3,38.5-14,51.7c-12.2,14.5-30.9,21.9-56.2,22.3
	h-10.3h-21.7h-4.9c-12.6,0-26.3-1.5-41.1-4.4c-14.8-3-26.4-5.7-34.7-8.3c-8.3-2.6-19.7-6.3-34.4-11.3c-23.4-8.2-38.5-12.4-45.1-12.6
	c-4.9-0.2-9.2-2-12.8-5.6c-3.6-3.5-5.4-7.8-5.4-12.7v-183c0-4.8,1.7-8.9,5.1-12.4c3.4-3.5,7.5-5.5,12.3-5.9
	c4.6-0.4,11.8-6,21.7-16.8c9.9-10.8,19.5-22.4,28.8-34.5c12.9-16.6,22.6-28,28.8-34.3c3.4-3.4,6.4-8,8.9-13.7
	c2.5-5.7,4.1-10.3,5-13.8c0.9-3.5,2.1-9.3,3.9-17.3c1.3-7.4,2.5-13.2,3.6-17.4c1-4.2,2.9-9.1,5.6-14.8c2.7-5.7,5.9-10.5,9.7-14.3
	c3.6-3.6,7.9-5.4,12.8-5.4c8.8,0,16.6,1,23.6,3c6.9,2,12.7,4.5,17.1,7.4c4.5,3,8.3,6.8,11.4,11.6c3.1,4.8,5.4,9,6.9,12.8
	c1.4,3.8,2.6,8.6,3.4,14.3c0.8,5.7,1.3,10,1.4,12.9c0.1,2.9,0.1,6.6,0.1,11.1c0,7.2-0.9,14.5-2.7,21.7c-1.8,7.2-3.6,12.9-5.4,17.1
	c-1.8,4.2-4.4,9.5-7.9,16c-0.6,1.1-1.5,2.9-2.9,5.1c-1.3,2.3-2.4,4.4-3.1,6.3c-0.8,1.9-1.5,4.2-2.3,6.9H402
	c14.8,0,27.7,5.4,38.5,16.3c10.8,10.9,16.3,23.7,16.3,38.5c0,16.4-5.2,30.5-15.7,42.5c2.9,8.4,4.3,15.6,4.3,21.7
	C445.9,288.8,441.9,301.9,433.1,313.5z M113.3,197.3c3.6,3.6,5.4,7.9,5.4,12.8v182.7c0,4.9-1.8,9.2-5.4,12.8
	c-3.6,3.6-7.9,5.4-12.8,5.4H18.3c-4.9,0-9.2-1.8-12.9-5.4c-3.6-3.6-5.4-7.9-5.4-12.8V210.1c0-4.9,1.8-9.2,5.4-12.8
	c3.6-3.6,7.9-5.4,12.9-5.4h82.2C105.4,191.9,109.7,193.7,113.3,197.3z M73.1,356.3c0-4.9-1.8-9.2-5.4-12.8
	c-3.6-3.6-7.9-5.4-12.8-5.4c-5.1,0-9.5,1.8-13,5.4c-3.5,3.6-5.3,7.9-5.3,12.8c0,5.1,1.8,9.5,5.3,13c3.5,3.5,7.8,5.3,13,5.3
	c4.9,0,9.2-1.8,12.8-5.3C71.3,365.8,73.1,361.5,73.1,356.3z"/>
</svg>
