<svg xmlns="http://www.w3.org/2000/svg" xmlns:xlink="http://www.w3.org/1999/xlink" preserveAspectRatio="xMidYMid" width="316.665" height="416.665" viewBox="0 0 19 25">  
  <path d="M18.998,8.100 L17.607,9.796 L18.995,11.494 L17.109,12.610 L17.842,14.697 L15.703,15.087 L15.690,17.293 L13.541,16.917 L12.782,18.992 L10.901,17.897 L9.500,19.576 L8.094,17.893 L6.207,18.988 L5.449,16.910 L3.298,17.283 L3.288,15.077 L1.149,14.683 L1.886,12.595 L0.001,11.475 L1.392,9.779 L0.004,8.081 L1.890,6.965 L1.157,4.879 L3.297,4.488 L3.310,2.282 L5.458,2.658 L6.217,0.584 L8.098,1.678 L9.500,-0.001 L10.905,1.683 L12.792,0.587 L13.550,2.665 L15.701,2.292 L15.711,4.499 L17.850,4.892 L17.113,6.980 L18.998,8.100 ZM9.500,3.016 C5.815,3.016 2.829,6.048 2.829,9.788 C2.829,13.527 5.815,16.559 9.500,16.559 C13.184,16.559 16.170,13.527 16.170,9.788 C16.170,6.048 13.184,3.016 9.500,3.016 ZM9.500,15.365 C6.465,15.365 4.006,12.868 4.006,9.788 C4.006,6.708 6.465,4.211 9.500,4.211 C12.534,4.211 14.994,6.708 14.994,9.788 C14.994,12.868 12.534,15.365 9.500,15.365 ZM4.876,18.153 L5.680,20.460 L7.749,19.264 L8.525,20.328 L6.672,24.995 L5.077,22.458 L2.103,23.114 L3.957,18.346 L4.876,18.153 ZM13.407,20.460 L14.212,18.153 L15.131,18.346 L16.984,23.114 L14.011,22.458 L12.416,24.995 L10.563,20.328 L11.339,19.264 L13.407,20.460 Z" fill="#000"/>
</svg>
