<svg xmlns="http://www.w3.org/2000/svg" width="300" height="300" viewBox="0 0 300 300">
  <metadata><?xpacket begin="﻿" id="W5M0MpCehiHzreSzNTczkc9d"?>
<x:xmpmeta xmlns:x="adobe:ns:meta/" x:xmptk="Adobe XMP Core 5.6-c142 79.160924, 2017/07/13-01:06:39        ">
   <rdf:RDF xmlns:rdf="http://www.w3.org/1999/02/22-rdf-syntax-ns#">
      <rdf:Description rdf:about=""/>
   </rdf:RDF>
</x:xmpmeta>
                                                                                                    
                                                                                                    
                                                                                                    
                                                                                                    
                                                                                                    
                                                                                                    
                                                                                                    
                                                                                                    
                                                                                                    
                                                                                                    
                                                                                                    
                                                                                                    
                                                                                                    
                                                                                                    
                                                                                                    
                                                                                                    
                                                                                                    
                                                                                                    
                                                                                                    
                                                                                                    
                           
<?xpacket end="w"?></metadata>
<defs>
    <style>
      .cls-1 {
        fill: #fff;
        fill-rule: evenodd;
      }
    </style>
  </defs>
  <rect id="Rounded_Rectangle_1" data-name="Rounded Rectangle 1" width="300" height="300" rx="70" ry="70"/>
  <path id="Forma_1" data-name="Forma 1" class="cls-1" d="M198.505,118.68l-30.893,30.311L198.505,179.3a11.388,11.388,0,0,1,0,16.324,11.924,11.924,0,0,1-16.633,0l-30.9-30.314-30.9,30.314a11.925,11.925,0,0,1-16.634,0,11.388,11.388,0,0,1,0-16.324l30.892-30.312L103.439,118.68a11.39,11.39,0,0,1,0-16.325,11.926,11.926,0,0,1,16.634,0l30.9,30.313,30.9-30.313a11.928,11.928,0,0,1,16.635,0A11.388,11.388,0,0,1,198.505,118.68Z"/>
</svg>
