<svg xmlns="http://www.w3.org/2000/svg" xmlns:xlink="http://www.w3.org/1999/xlink" preserveAspectRatio="xMidYMid" width="300" height="225" viewBox="0 0 20 15">  
  <path d="M19.197,15.002 L0.804,15.002 C0.362,15.002 -0.000,14.643 -0.000,14.204 L-0.000,0.796 C-0.000,0.771 0.005,0.747 0.007,0.722 L9.090,9.735 C9.333,9.975 9.656,10.108 10.000,10.108 C10.345,10.108 10.668,9.975 10.910,9.735 L19.993,0.722 C19.996,0.747 20.001,0.771 20.001,0.796 L20.001,14.204 C20.001,14.643 19.639,15.002 19.197,15.002 ZM9.773,9.057 L0.657,0.013 C0.705,0.004 0.754,-0.002 0.804,-0.002 L19.197,-0.002 C19.247,-0.002 19.296,0.004 19.343,0.013 L10.228,9.057 C10.107,9.177 9.893,9.177 9.773,9.057 Z" fill="#000"/>
</svg>
