<?xml version="1.0" encoding="utf-8"?>
<!-- Generator: Adobe Illustrator 22.0.1, SVG Export Plug-In . SVG Version: 6.00 Build 0)  -->
<svg version="1.1" id="Layer_1" xmlns="http://www.w3.org/2000/svg" xmlns:xlink="http://www.w3.org/1999/xlink" x="0px" y="0px"
	 viewBox="0 0 300 264" style="enable-background:new 0 0 300 264;" xml:space="preserve">
<style type="text/css">
	.st0{fill:#999999;}
</style>
<g>
	<path class="st0" d="M105.2,108.7H2.1c-1.1,0-2-0.9-2-2V3.6c0-1.1,0.9-2,2-2h103c1.1,0,2,0.9,2,2v103
		C107.2,107.8,106.3,108.7,105.2,108.7z"/>
	<path class="st0" d="M297.9,29.8H139.8c-1.1,0-2.1-0.9-2.1-2.1v-24c0-1.1,0.9-2.1,2.1-2.1l158.1,0c1.1,0,2.1,0.9,2.1,2.1v24
		C300,28.9,299.1,29.8,297.9,29.8z"/>
	<path class="st0" d="M270.9,90.1H139.8c-1.1,0-2.1-0.9-2.1-2.1V64c0-1.1,0.9-2.1,2.1-2.1h131.1c1.1,0,2.1,0.9,2.1,2.1v24
		C273,89.2,272,90.1,270.9,90.1z"/>
</g>
<g>
	<path class="st0" d="M105.2,262.7H2.1c-1.1,0-2-0.9-2-2v-103c0-1.1,0.9-2,2-2h103c1.1,0,2,0.9,2,2v103
		C107.2,261.8,106.3,262.7,105.2,262.7z"/>
	<path class="st0" d="M297.9,183.8H139.8c-1.1,0-2.1-0.9-2.1-2.1v-24c0-1.1,0.9-2.1,2.1-2.1h158.1c1.1,0,2.1,0.9,2.1,2.1v24
		C300,182.9,299.1,183.8,297.9,183.8z"/>
	<path class="st0" d="M270.9,244.1H139.8c-1.1,0-2.1-0.9-2.1-2.1v-24c0-1.1,0.9-2.1,2.1-2.1h131.1c1.1,0,2.1,0.9,2.1,2.1v24
		C273,243.1,272,244.1,270.9,244.1z"/>
</g>
</svg>
