<svg xmlns="http://www.w3.org/2000/svg" xmlns:xlink="http://www.w3.org/1999/xlink" preserveAspectRatio="xMidYMid" width="281.25" height="375" viewBox="0 0 11.25 15">  
  <path d="M10.428,6.012 L9.660,6.012 L9.660,4.210 C9.660,1.891 7.850,0.005 5.626,0.005 C3.401,0.005 1.592,1.891 1.592,4.210 L1.592,6.012 L0.823,6.012 C0.371,6.012 0.000,6.398 0.000,6.870 L0.000,14.136 C0.000,14.608 0.371,14.994 0.823,14.994 L10.428,14.994 C10.881,14.994 11.251,14.608 11.251,14.136 L11.251,6.870 C11.251,6.398 10.881,6.012 10.428,6.012 ZM6.516,10.908 C6.516,10.921 6.517,10.934 6.517,10.946 L6.517,12.033 C6.517,12.545 6.116,12.963 5.626,12.963 C5.135,12.963 4.734,12.545 4.734,12.033 L4.734,10.946 C4.734,10.934 4.735,10.921 4.736,10.908 C4.304,10.609 4.020,10.097 4.020,9.516 C4.020,8.592 4.739,7.843 5.626,7.843 C6.512,7.843 7.231,8.592 7.231,9.516 C7.231,10.097 6.947,10.609 6.516,10.908 ZM8.013,6.012 L3.238,6.012 L3.238,4.210 C3.238,2.838 4.309,1.722 5.626,1.722 C6.942,1.722 8.013,2.838 8.013,4.210 L8.013,6.012 Z" fill="#000"/>
</svg>
