<?xml version="1.0" encoding="utf-8"?>
<!-- Generator: Adobe Illustrator 22.0.1, SVG Export Plug-In . SVG Version: 6.00 Build 0)  -->
<svg version="1.1" id="Layer_1" xmlns="http://www.w3.org/2000/svg" xmlns:xlink="http://www.w3.org/1999/xlink" x="0px" y="0px"
	 viewBox="0 0 300 285.5" style="enable-background:new 0 0 300 285.5;" xml:space="preserve">
<style type="text/css">
	.st0{fill:#999999;}
</style>
<g>
	<path class="st0" d="M295.9,138.2c-7.6-4.9-45.5-27.2-53.6-31.5c-8.1-4.3-11.4-4.2-11.4,3.4c0,4.7,0,10.6,0,17.9h-80.8
		c-8.1,0-14.8,6.6-14.8,14.8c0,8.1,6.6,14.8,14.8,14.8h80.8c0,7.3,0,13.2,0,17.9c0,7.6,3.2,7.7,11.4,3.4c8.1-4.3,46-26.7,53.6-31.5
		c3.1-2,4.2-3.4,4.1-4.5C300.1,141.6,299,140.2,295.9,138.2z"/>
	<path class="st0" d="M235.5,206.6c-5.4,0-10.2,2.3-13.7,6l0,0c-19.3,21.9-47.6,35.7-79,35.7c-58.2,0-105.5-47.3-105.5-105.5
		S84.7,37.2,142.9,37.2c31.4,0,59.6,13.8,79,35.7l0,0c3.4,3.7,8.2,6,13.6,6c10.3,0,18.7-8.4,18.7-18.7c0-4.9-1.9-9.3-5-12.6
		c0,0,0,0,0-0.1c0-0.1-0.1-0.1-0.2-0.2c-0.2-0.2-0.3-0.4-0.5-0.6C222.4,18,184.7-0.1,142.9-0.1C64.1-0.1,0,64,0,142.8
		c0,78.8,64.1,142.9,142.9,142.9c41.9,0,79.5-18.1,105.7-46.9c0.2-0.2,0.4-0.4,0.6-0.6c0.2-0.2,0.3-0.4,0.5-0.5
		c0.1-0.1,0.1-0.1,0.1-0.2c2.8-3.3,4.5-7.4,4.5-12.1C254.3,215,245.9,206.6,235.5,206.6z"/>
</g>
</svg>
