<svg version="1.0" id="Layer_1" xmlns="http://www.w3.org/2000/svg" xmlns:xlink="http://www.w3.org/1999/xlink" x="0px" y="0px"
	 width="1000px" height="500px" viewBox="0 0 384.956 85.356" style="enable-background:new 0 0 384.956 85.356;"
	 xml:space="preserve">
	<circle style="fill:#DB3F20;" cx="339.333" cy="42.327" r="38.079"/>	
				<path style="fill:#2E3192;" d="M52.624,19.588c-3.586,0-6.43,1.479-8.479,3.47c-13.825,4.495-26.57,6.544-26.57,17.636
					c-0.056,6.486,5.008,10.753,12.291,10.753v-8.25c-0.967,0-3.812-0.171-3.812-2.902c0-3.355,4.95-5.004,12.686-7.224
					L31.06,52.073c-3.356,7.851-7.226,12.857-12.346,12.857c-2.673,0-5.348-2.104-5.348-4.95c0-1.422,0.626-4.607,6.088-4.209
					v-8.364c-9.217-0.796-14.736,5.406-14.736,12.745c0,6.486,4.495,13.143,14.452,13.143c6.257,0,14.622-2.787,20.026-16.443
					l10.753-26.795c1.593-3.926,4.495-5.177,4.495-5.177L52.624,19.588z"/>			
				<path style="fill:#2E3192;" d="M293.041,51.99c-4.268,7.282-6.884,10.526-8.25,10.526c-0.796,0-2.105-0.911,0.512-7.283
					l1.252-3.244c0.512-1.309,0.683-2.162,0.683-2.844c0-4.438-7.852-7.908-10.184-9.843l1.649-4.38l-3.869-2.047
					c-2.333,0.74-5.404,3.982-5.404,6.94c0,1.422,0.74,2.332,1.764,3.413c-1.589,3.504-3.067,6.473-4.191,8.517
					c-3.986,6.997-10.108,10.284-15.957,10.284c-7.226,0-6.088-4.951-6.088-4.951c11.551,1.537,16.046-2.39,18.207-7.225
					c3.755-8.648-2.56-12.63-9.274-12.63c-12.569,0-18.048,12.071-18.461,19.528c-3.585,3.566-7.88,5.278-12.092,5.278
					c-1.764,0-6.146-0.171-6.146-4.155c0-3.641,3.755-12.743,8.364-12.743c1.82,0,1.422,1.478-1.82,8.135h10.07
					c5.12-10.185,0.967-16.044-7.739-16.044c-11.848,0-17.467,10.915-18.315,18.473c-3.017,4.286-5.58,6.333-7.175,6.333
					c-1.024,0-1.878-0.798,0.682-7.226l2.504-6.202c1.195-2.958,1.707-4.723,1.707-6.257c0-3.015-1.878-5.121-5.804-5.121
					c-5.689,0-10.412,4.324-9.843,3.755l1.195-3.015h-10.07l-7.96,19.669c-3.399,2.967-7.365,4.397-11.215,4.397
					c-7.226,0-6.088-4.951-6.088-4.951c11.55,1.537,16.045-2.39,18.207-7.225c3.755-8.648-2.56-12.63-9.275-12.63
					c-12.583,0-18.061,12.098-18.463,19.551c-2.602,3.596-4.706,5.312-6.287,5.312c-1.081,0-2.106-0.797,0.513-7.283l6.77-16.84
					h-10.07l-6.088,15.076c-3.812,6.259-5.462,8.135-7.226,8.135c-1.138,0-1.935-0.74,0.342-6.372l6.769-16.84h-10.07l-6.259,15.531
					c-0.977,2.424-1.497,4.511-1.669,6.305c-1.546,1.495-2.871,2.23-3.849,2.23c-0.911,0-1.878-0.684,0.74-7.226L121.092,26.7
					h-10.07l-10.81,26.795c-0.571,1.419-0.977,2.716-1.259,3.916c-2.797,2.646-5.932,3.821-9.722,3.821
					c-2.274,0-3.868-0.853-4.949-1.82l0.911-2.162c7.566-0.227,10.07-2.788,12.972-8.135c5.404-9.899,6.486-15.304,6.884-17.182
					c0.967-4.153-0.513-9.785-7.226-9.785c-6.031,0-10.014,3.413-13.485,12.232L74.282,59.354c-1.727,1.8-3.184,2.676-4.226,2.676
					c-1.024,0-1.878-0.798,0.682-7.226l2.504-6.202c1.194-2.958,1.707-4.723,1.707-6.257c0-3.015-1.878-5.121-5.804-5.121
					c-5.69,0-10.412,4.324-9.843,3.755l1.194-3.015h-10.07L38.479,67.491h10.07l7.397-18.205c2.333-2.732,4.95-3.982,6.259-3.982
					c0.853,0,1.479,0.455,1.479,1.195c0,0.853-0.909,3.071-1.991,5.746l-0.398,0.909c-4.039,10.185-1.593,15.078,4.666,15.078
					c1.847,0,3.58-0.413,5.213-1.153l-2.366,5.876c-2.96,7.339-0.229,12.403,5.974,12.403c4.666,0,7.964-2.731,10.185-6.258
					c2.047-3.242,3.129-7.225,3.584-10.412c0.171-1.706,0.113-3.299,0.113-3.299c3.734,0.082,7.059-0.735,9.99-2.465
					c0.686,3.64,3.412,5.31,6.681,5.31c2.942,0,5.732-1.269,8.298-3.322c1.156,2.262,3.412,3.322,6.04,3.322
					c3.755,0,6.828-1.991,9.502-5.177c0.796,3.64,3.584,5.177,6.826,5.177c4.024,0,7.757-2.399,11.037-5.955
					c1.632,3.698,5.5,5.955,11.78,5.955c4.224,0,7.851-1.012,10.948-2.625l-0.763,1.885h10.07l7.397-18.205
					c2.333-2.732,4.95-3.982,6.259-3.982c0.852,0,1.479,0.455,1.479,1.195c0,0.853-0.91,3.071-1.991,5.746l-0.398,0.909
					c-4.039,10.185-1.593,15.078,4.666,15.078c4.594,0,8.485-2.539,11.875-6.396c1.516,3.962,5.452,6.396,12.023,6.396
					c6.727,0,11.943-2.56,15.885-6.048c1.607,3.755,5.489,6.048,11.823,6.048c11.222,0,18.259-7.105,22.185-13.797
					c0.004,0,0.008,0.002,0.011,0.002c0.065-0.111,0.127-0.226,0.19-0.337c0.028-0.05,0.06-0.1,0.088-0.149
					c-0.001-0.001-0.001-0.003-0.002-0.005c1.375-2.458,2.666-4.976,4.106-8.497c1.48,1.307,2.789,2.333,2.789,3.469
					c0,0.286-0.058,0.855-0.513,1.993l-1.764,4.437c-4.097,10.128,1.31,13.371,5.689,13.371c6.599,0,11.265-6.713,15.589-14.281
					C295.943,53.299,294.348,52.105,293.041,51.99z M253.378,45.189c1.935,0,1.422,1.536,1.024,2.56
					c-1.024,2.56-2.617,4.722-7.737,3.869C246.665,51.618,249.452,45.189,253.378,45.189z M164.106,45.189
					c1.935,0,1.422,1.536,1.024,2.56c-1.024,2.56-2.617,4.722-7.737,3.869C157.393,51.618,160.18,45.189,164.106,45.189z
					 M93.156,37.566c1.593-3.926,3.528-7.851,5.462-7.851c1.138,0,0.682,2.219,0.228,3.813c-0.682,2.332-1.764,5.688-5.974,13.538
					c-2.049,3.756-3.016,5.406-5.86,5.804L93.156,37.566z M83.883,68.402c-0.796,3.755-2.788,10.753-6.259,10.867
					c-1.023,0-0.967-0.682-0.056-3.129l4.949-12.289C83.77,64.249,84.508,65.387,83.883,68.402z"/>
				
		<path style="fill:#FFFFFF;stroke:#FFFFFF;stroke-width:0.8303;stroke-miterlimit:10;" d="M315.054,30.892v9.983h11.54v-9.983
			h3.115v23.86h-3.115V43.566h-11.54v11.187h-3.115v-23.86H315.054z"/>
		<path style="fill:#FFFFFF;stroke:#FFFFFF;stroke-width:0.8303;stroke-miterlimit:10;" d="M337.074,30.892v14.16
			c0,5.311,2.371,7.576,5.558,7.576c3.505,0,5.806-2.337,5.806-7.576v-14.16h3.115V44.84c0,7.329-3.858,10.302-9.027,10.302
			c-4.885,0-8.566-2.762-8.566-10.196V30.892H337.074z"/>
		<path style="fill:#FFFFFF;stroke:#FFFFFF;stroke-width:0.8303;stroke-miterlimit:10;" d="M355.836,31.246
			c1.346-0.318,3.505-0.531,5.629-0.531c3.08,0,5.063,0.531,6.514,1.735c1.238,0.92,2.018,2.336,2.018,4.212
			c0,2.337-1.558,4.354-4.035,5.239v0.106c2.266,0.531,4.92,2.407,4.92,5.948c0,2.053-0.814,3.646-2.053,4.779
			c-1.629,1.521-4.319,2.229-8.213,2.229c-2.124,0-3.753-0.142-4.779-0.283V31.246z M358.916,41.017h2.797
			c3.221,0,5.133-1.734,5.133-4.036c0-2.761-2.089-3.894-5.204-3.894c-1.416,0-2.23,0.106-2.726,0.212V41.017z M358.916,52.416
			c0.637,0.106,1.486,0.142,2.584,0.142c3.186,0,6.124-1.168,6.124-4.637c0-3.222-2.796-4.603-6.159-4.603h-2.549V52.416z"/>	
</svg>
